<?xml version="1.0" encoding="UTF-8" standalone="no"?><svg xmlns="http://www.w3.org/2000/svg" xmlns:xlink="http://www.w3.org/1999/xlink" contentStyleType="text/css" height="328px" preserveAspectRatio="none" style="width:513px;height:328px;background:#FFFFFF;" version="1.1" viewBox="0 0 513 328" width="513px" zoomAndPan="magnify"><defs/><g><!--MD5=[7dbc5279649e49b795d9e72d9f808102]
entity userAction--><g id="elem_userAction"><rect fill="#F1F1F1" height="52.6301" rx="2.5" ry="2.5" style="stroke:#181818;stroke-width:0.5;" width="119" x="165.71" y="7"/><text fill="#000000" font-family="sans-serif" font-size="14" lengthAdjust="spacing" textLength="32" x="175.71" y="30.0096">User</text><text fill="#000000" font-family="sans-serif" font-size="14" lengthAdjust="spacing" textLength="99" x="175.71" y="46.3247">created order</text></g><!--MD5=[10a47645bc89e16cb630070fd7a07ea7]
entity exchanger--><g id="elem_exchanger"><path d="M163.71,137 L286.71,137 C291.71,137 291.71,150.1575 291.71,150.1575 C291.71,150.1575 291.71,163.3151 286.71,163.3151 L163.71,163.3151 C158.71,163.3151 158.71,150.1575 158.71,150.1575 C158.71,150.1575 158.71,137 163.71,137 " fill="#F1F1F1" style="stroke:#181818;stroke-width:0.5;"/><path d="M286.71,137 C281.71,137 281.71,150.1575 281.71,150.1575 C281.71,163.3151 286.71,163.3151 286.71,163.3151 " fill="none" style="stroke:#181818;stroke-width:0.5;"/><text fill="#000000" font-family="sans-serif" font-size="14" lengthAdjust="spacing" textLength="113" x="163.71" y="155.0096">Message Queue</text></g><!--MD5=[a0aa8d3cc17c7038eec1e793abffb023]
entity step1--><g id="elem_step1"><rect fill="#F1F1F1" height="52.6301" rx="2.5" ry="2.5" style="stroke:#181818;stroke-width:0.5;" width="142" x="8.21" y="270"/><text fill="#000000" font-family="sans-serif" font-size="14" lengthAdjust="spacing" textLength="46" x="18.21" y="293.0096">Step 1</text><text fill="#000000" font-family="sans-serif" font-size="14" lengthAdjust="spacing" textLength="122" x="18.21" y="309.3247">charge customer</text></g><!--MD5=[95f5ba265e8f0f45a639e66959962dae]
entity step2--><g id="elem_step2"><rect fill="#F1F1F1" height="52.6301" rx="2.5" ry="2.5" style="stroke:#181818;stroke-width:0.5;" width="127" x="201.71" y="270"/><text fill="#000000" font-family="sans-serif" font-size="14" lengthAdjust="spacing" textLength="46" x="211.71" y="293.0096">Step 2</text><text fill="#000000" font-family="sans-serif" font-size="14" lengthAdjust="spacing" textLength="107" x="211.71" y="309.3247">schedule order</text></g><!--MD5=[0ef140ce3fd4c07702e8f80d12bdb9e3]
entity step3--><g id="elem_step3"><rect fill="#F1F1F1" height="52.6301" rx="2.5" ry="2.5" style="stroke:#181818;stroke-width:0.5;" width="98" x="409.21" y="270"/><text fill="#000000" font-family="sans-serif" font-size="14" lengthAdjust="spacing" textLength="46" x="419.21" y="293.0096">Step 3</text><text fill="#000000" font-family="sans-serif" font-size="14" lengthAdjust="spacing" textLength="78" x="419.21" y="309.3247">send email</text></g><!--MD5=[aad6162d43ba457f5b46fcb12a4bed41]
link userAction to exchanger--><g id="link_userAction_exchanger"><path d="M225.21,60.2 C225.21,82.01 225.21,112.72 225.21,131.72 " fill="none" id="userAction-to-exchanger" style="stroke:#181818;stroke-width:1.0;"/><polygon fill="#181818" points="225.21,136.75,229.21,127.75,225.21,131.75,221.21,127.75,225.21,136.75" style="stroke:#181818;stroke-width:1.0;"/><text fill="#000000" font-family="sans-serif" font-size="13" lengthAdjust="spacing" textLength="89" x="226.21" y="103.0669">Order created</text></g><!--MD5=[9733deae9ffc345b2c7713c236739cb5]
link exchanger to step1--><g id="link_exchanger_step1"><path d="M158.47,155.63 C105.18,160.88 36.64,171.66 19.21,193 C6,209.18 10.84,220.86 19.21,240 C23.51,249.83 30.5,258.7 38.23,266.31 " fill="none" id="exchanger-to-step1" style="stroke:#181818;stroke-width:1.0;"/><polygon fill="#181818" points="42.07,269.95,38.2944,260.8536,38.4429,266.5085,32.788,266.657,42.07,269.95" style="stroke:#181818;stroke-width:1.0;"/><text fill="#000000" font-family="sans-serif" font-size="13" lengthAdjust="spacing" textLength="4" x="20.21" y="206.0669"> </text><text fill="#000000" font-family="sans-serif" font-size="13" lengthAdjust="spacing" textLength="56" x="20.21" y="221.1997">On order</text><text fill="#000000" font-family="sans-serif" font-size="13" lengthAdjust="spacing" textLength="49" x="20.21" y="236.3325">created</text></g><!--MD5=[23c8816b68a114af36016861e290db78]
reverse link exchanger to step1--><g id="link_exchanger_step1"><path d="M187.86,165.33 C173.15,172.19 156.8,181.46 144.21,193 C120.45,214.79 101.87,247.14 90.77,269.65 " fill="none" id="exchanger-backto-step1" style="stroke:#181818;stroke-width:1.0;"/><polygon fill="#181818" points="192.78,163.09,182.9314,163.1588,188.2252,165.1525,186.2314,170.4464,192.78,163.09" style="stroke:#181818;stroke-width:1.0;"/><text fill="#000000" font-family="sans-serif" font-size="13" lengthAdjust="spacing" textLength="4" x="145.21" y="206.0669"> </text><text fill="#000000" font-family="sans-serif" font-size="13" lengthAdjust="spacing" textLength="63" x="145.21" y="221.1997">Customer</text><text fill="#000000" font-family="sans-serif" font-size="13" lengthAdjust="spacing" textLength="52" x="145.21" y="236.3325">charged</text></g><!--MD5=[4935fac1d639ac363aaea9184ef2b265]
link exchanger to step2--><g id="link_exchanger_step2"><path d="M222.13,163.21 C218.29,180.74 213.25,213.82 222.21,240 C225.34,249.15 230.66,257.95 236.51,265.75 " fill="none" id="exchanger-to-step2" style="stroke:#181818;stroke-width:1.0;"/><polygon fill="#181818" points="239.8,269.98,237.4248,260.4219,236.7273,266.0355,231.1136,265.3381,239.8,269.98" style="stroke:#181818;stroke-width:1.0;"/><text fill="#000000" font-family="sans-serif" font-size="13" lengthAdjust="spacing" textLength="4" x="223.21" y="206.0669"> </text><text fill="#000000" font-family="sans-serif" font-size="13" lengthAdjust="spacing" textLength="83" x="223.21" y="221.1997">On customer</text><text fill="#000000" font-family="sans-serif" font-size="13" lengthAdjust="spacing" textLength="52" x="223.21" y="236.3325">charged</text></g><!--MD5=[db896232100d10305417d2caef0d1107]
reverse link exchanger to step2--><g id="link_exchanger_step2"><path d="M276.87,165.11 C290.35,171.39 303.3,180.34 311.21,193 C322.27,210.72 318.29,220.35 311.21,240 C307.26,250.95 300.11,261.27 292.61,269.97 " fill="none" id="exchanger-backto-step2" style="stroke:#181818;stroke-width:1.0;"/><polygon fill="#181818" points="272.29,163.08,278.894,170.3867,276.8602,165.108,282.1389,163.0743,272.29,163.08" style="stroke:#181818;stroke-width:1.0;"/><text fill="#000000" font-family="sans-serif" font-size="13" lengthAdjust="spacing" textLength="4" x="318.21" y="206.0669"> </text><text fill="#000000" font-family="sans-serif" font-size="13" lengthAdjust="spacing" textLength="36" x="318.21" y="221.1997">Order</text><text fill="#000000" font-family="sans-serif" font-size="13" lengthAdjust="spacing" textLength="66" x="318.21" y="236.3325">scheduled</text></g><!--MD5=[a2d8303380a2902701bf265278c3bb42]
link exchanger to step3--><g id="link_exchanger_step3"><path d="M291.9,156.02 C324.89,161.25 363.84,171.79 393.21,193 C418.09,210.96 435.7,241.66 446.26,264.79 " fill="none" id="exchanger-to-step3" style="stroke:#181818;stroke-width:1.0;"/><polygon fill="#181818" points="448.4,269.61,448.4057,259.7611,446.372,265.0398,441.0933,263.006,448.4,269.61" style="stroke:#181818;stroke-width:1.0;"/><text fill="#000000" font-family="sans-serif" font-size="13" lengthAdjust="spacing" textLength="4" x="434.21" y="206.0669"> </text><text fill="#000000" font-family="sans-serif" font-size="13" lengthAdjust="spacing" textLength="56" x="434.21" y="221.1997">On order</text><text fill="#000000" font-family="sans-serif" font-size="13" lengthAdjust="spacing" textLength="66" x="434.21" y="236.3325">scheduled</text></g><!--MD5=[41e0af92acfce4966a8ea719bf91c7ea]
@startuml

rectangle "User\ncreated order" as userAction

queue "Message Queue" as exchanger

rectangle "Step 1\ncharge customer" as step1
rectangle "Step 2\nschedule order" as step2
rectangle "Step 3\nsend email"  as step3

exchanger <-up- userAction : Order created

exchanger -down-> step1 : \lOn order\ncreated
exchanger <-down- step1 : \lCustomer\ncharged

exchanger -down-> step2 : \lOn customer\ncharged
exchanger <-down- step2 : \lOrder\nscheduled

exchanger -down-> step3 : \lOn order\nscheduled

@enduml

PlantUML version 1.2022.6(Tue Jun 21 19:34:49 CEST 2022)
(GPL source distribution)
Java Runtime: OpenJDK Runtime Environment
JVM: OpenJDK 64-Bit Server VM
Default Encoding: UTF-8
Language: en
Country: US
--></g></svg>