<?xml version="1.0" encoding="UTF-8" standalone="no"?><svg xmlns="http://www.w3.org/2000/svg" xmlns:xlink="http://www.w3.org/1999/xlink" contentStyleType="text/css" height="314px" preserveAspectRatio="none" style="width:463px;height:314px;background:#FFFFFF;" version="1.1" viewBox="0 0 463 314" width="463px" zoomAndPan="magnify"><defs/><g><g id="cluster_##223"><rect height="108" rx="2.5" ry="2.5" style="stroke:#181818;stroke-width:1.0;fill:none;" width="271" x="186" y="104"/></g><!--MD5=[8b37c555d4e18eaf34bdb9821e2ad4fc]
entity orchestrator--><g id="elem_orchestrator"><ellipse cx="248" cy="128.5" fill="#F1F1F1" rx="8" ry="8" style="stroke:#181818;stroke-width:0.5;"/><path d="M248,136.5 L248,163.5 M235,144.5 L261,144.5 M248,163.5 L235,178.5 M248,163.5 L261,178.5 " fill="none" style="stroke:#181818;stroke-width:0.5;"/><text fill="#000000" font-family="sans-serif" font-size="14" lengthAdjust="spacing" textLength="92" x="202" y="193.0096">Orchestrator</text></g><!--MD5=[c51e95ea77c0468a055f12006ab1c960]
entity orchestratorDb--><g id="elem_orchestratorDb"><path d="M329,137 C329,127 385,127 385,127 C385,127 441,127 441,137 L441,178.6301 C441,188.6301 385,188.6301 385,188.6301 C385,188.6301 329,188.6301 329,178.6301 L329,137 " fill="#F1F1F1" style="stroke:#181818;stroke-width:0.5;"/><path d="M329,137 C329,147 385,147 385,147 C385,147 441,147 441,137 " fill="none" style="stroke:#181818;stroke-width:0.5;"/><text fill="#000000" font-family="sans-serif" font-size="14" lengthAdjust="spacing" textLength="92" x="339" y="164.0096">Orchestrator</text><text fill="#000000" font-family="sans-serif" font-size="14" lengthAdjust="spacing" textLength="21" x="339" y="180.3247">DB</text></g><!--MD5=[7dbc5279649e49b795d9e72d9f808102]
entity userAction--><g id="elem_userAction"><rect fill="#F1F1F1" height="52.6301" rx="2.5" ry="2.5" style="stroke:#181818;stroke-width:0.5;" width="119" x="188.5" y="7"/><text fill="#000000" font-family="sans-serif" font-size="14" lengthAdjust="spacing" textLength="32" x="198.5" y="30.0096">User</text><text fill="#000000" font-family="sans-serif" font-size="14" lengthAdjust="spacing" textLength="99" x="198.5" y="46.3247">created order</text></g><!--MD5=[a0aa8d3cc17c7038eec1e793abffb023]
entity step1--><g id="elem_step1"><rect fill="#F1F1F1" height="52.6301" rx="2.5" ry="2.5" style="stroke:#181818;stroke-width:0.5;" width="142" x="7" y="256"/><text fill="#000000" font-family="sans-serif" font-size="14" lengthAdjust="spacing" textLength="46" x="17" y="279.0096">Step 1</text><text fill="#000000" font-family="sans-serif" font-size="14" lengthAdjust="spacing" textLength="122" x="17" y="295.3247">charge customer</text></g><!--MD5=[95f5ba265e8f0f45a639e66959962dae]
entity step2--><g id="elem_step2"><rect fill="#F1F1F1" height="52.6301" rx="2.5" ry="2.5" style="stroke:#181818;stroke-width:0.5;" width="127" x="184.5" y="256"/><text fill="#000000" font-family="sans-serif" font-size="14" lengthAdjust="spacing" textLength="46" x="194.5" y="279.0096">Step 2</text><text fill="#000000" font-family="sans-serif" font-size="14" lengthAdjust="spacing" textLength="107" x="194.5" y="295.3247">schedule order</text></g><!--MD5=[0ef140ce3fd4c07702e8f80d12bdb9e3]
entity step3--><g id="elem_step3"><rect fill="#F1F1F1" height="52.6301" rx="2.5" ry="2.5" style="stroke:#181818;stroke-width:0.5;" width="98" x="347" y="256"/><text fill="#000000" font-family="sans-serif" font-size="14" lengthAdjust="spacing" textLength="46" x="357" y="279.0096">Step 3</text><text fill="#000000" font-family="sans-serif" font-size="14" lengthAdjust="spacing" textLength="78" x="357" y="295.3247">send email</text></g><!--MD5=[271fb582872ec5a1be8f76f1baa17f33]
reverse link userAction to orchestrator--><g id="link_userAction_orchestrator"><path d="M236.78,65.18 C234.97,81.72 234.77,102.27 236.16,119.73 " fill="none" id="userAction-backto-orchestrator" style="stroke:#181818;stroke-width:1.0;"/><polygon fill="#181818" points="237.39,60.18,232.3136,68.6198,236.7751,65.142,240.2528,69.6036,237.39,60.18" style="stroke:#181818;stroke-width:1.0;"/></g><!--MD5=[9e5d30225e653742882cc975a8d23ff8]
link userAction to orchestrator--><g id="link_userAction_orchestrator"><path d="M259.23,60.18 C261.52,75.96 262.08,96.55 260.91,114.69 " fill="none" id="userAction-to-orchestrator" style="stroke:#181818;stroke-width:1.0;"/><polygon fill="#181818" points="260.53,119.73,265.1876,111.052,260.9015,114.7438,257.2097,110.4577,260.53,119.73" style="stroke:#181818;stroke-width:1.0;"/></g><!--MD5=[1f40f32e5fa53bd6dff039334f20dd80]
link orchestrator to orchestratorDb--><g id="link_orchestrator_orchestratorDb"><path d="M294.02,183.43 C303.91,186.13 313.79,187.05 323.68,186.19 " fill="none" id="orchestrator-to-orchestratorDb" style="stroke:#181818;stroke-width:1.0;"/><polygon fill="#181818" points="328.85,185.57,319.4438,182.6505,323.8843,186.155,320.3798,190.5956,328.85,185.57" style="stroke:#181818;stroke-width:1.0;"/></g><!--MD5=[a3128c0654ab388b2c8265f753235e06]
reverse link orchestrator to orchestratorDb--><g id="link_orchestrator_orchestratorDb"><path d="M298.92,131.38 C308.9,129.25 318.87,128.93 328.85,130.43 " fill="none" id="orchestrator-backto-orchestratorDb" style="stroke:#181818;stroke-width:1.0;"/><polygon fill="#181818" points="294.02,132.57,303.7119,134.3215,298.8774,131.3842,301.8146,126.5497,294.02,132.57" style="stroke:#181818;stroke-width:1.0;"/></g><!--MD5=[198e070060192610ec63780bae820766]
link orchestrator to step1--><g id="link_orchestrator_step1"><path d="M201.76,184.68 C171.5,204.53 133.24,231.99 107.08,252.61 " fill="none" id="orchestrator-to-step1" style="stroke:#181818;stroke-width:1.0;"/><polygon fill="#181818" points="102.99,255.85,112.5331,253.415,106.9151,252.7527,107.5774,247.1348,102.99,255.85" style="stroke:#181818;stroke-width:1.0;"/></g><!--MD5=[f8883d8829303dac5011573db300b8c3]
reverse link orchestrator to step1--><g id="link_orchestrator_step1"><path d="M204.85,199.3 C180.28,217.97 149.74,239.6 124.61,255.99 " fill="none" id="orchestrator-backto-step1" style="stroke:#181818;stroke-width:1.0;"/><polygon fill="#181818" points="209.05,196.09,199.4679,198.3668,205.0742,199.1219,204.319,204.7282,209.05,196.09" style="stroke:#181818;stroke-width:1.0;"/></g><!--MD5=[f7e17ff6a252a2b719c693f64ca7fde0]
link orchestrator to step2--><g id="link_orchestrator_step2"><path d="M236.18,196.09 C234.77,213.57 234.97,234.19 236.78,250.78 " fill="none" id="orchestrator-to-step2" style="stroke:#181818;stroke-width:1.0;"/><polygon fill="#181818" points="237.39,255.8,240.2528,246.3764,236.7751,250.838,232.3136,247.3602,237.39,255.8" style="stroke:#181818;stroke-width:1.0;"/></g><!--MD5=[974911026f9eeddb0b4a4bdb8fb03342]
reverse link orchestrator to step2--><g id="link_orchestrator_step2"><path d="M260.9,201.14 C262.08,219.31 261.52,239.97 259.23,255.8 " fill="none" id="orchestrator-backto-step2" style="stroke:#181818;stroke-width:1.0;"/><polygon fill="#181818" points="260.52,196.09,257.1997,205.3623,260.8915,201.0762,265.1776,204.768,260.52,196.09" style="stroke:#181818;stroke-width:1.0;"/></g><!--MD5=[d50edbb3488c440d93026c613bed7411]
link orchestrator to step3--><g id="link_orchestrator_step3"><path d="M268.93,196.28 C277.02,204.32 286.17,212.61 295,220 C309.57,232.19 326.34,244.74 342.22,255.3 " fill="none" id="orchestrator-to-step3" style="stroke:#181818;stroke-width:1.0;"/><polygon fill="#181818" points="346.67,258.22,341.3346,249.9415,342.4879,255.4795,336.9499,256.6328,346.67,258.22" style="stroke:#181818;stroke-width:1.0;"/></g><!--MD5=[8414fe872e5b3d2fc59b501d5c516b6c]
reverse link orchestrator to step3--><g id="link_orchestrator_step3"><path d="M298.02,191.8 C308.58,201.18 319.51,211.23 330,220 C344.83,232.41 361.94,245.19 375.52,255.86 " fill="none" id="orchestrator-backto-step3" style="stroke:#181818;stroke-width:1.0;"/><polygon fill="#181818" points="294.14,188.38,298.2432,197.3334,297.8896,191.6876,303.5354,191.3341,294.14,188.38" style="stroke:#181818;stroke-width:1.0;"/></g><!--MD5=[216f3cfa893667d117ba28ec0cb9612d]
@startuml

rectangle "User\ncreated order" as userAction
rectangle {
  actor Orchestrator as orchestrator
  database "Orchestrator\nDB" as orchestratorDb
}
rectangle "Step 1\ncharge customer" as step1
rectangle "Step 2\nschedule order" as step2
rectangle "Step 3\nsend email"  as step3

orchestrator -up-> userAction
orchestrator <-up- userAction
orchestrator -right-> orchestratorDb
orchestrator <-right- orchestratorDb

orchestrator -down-> step1
orchestrator <-down- step1

orchestrator -down-> step2
orchestrator <-down- step2

orchestrator -down-> step3
orchestrator <-down- step3

@enduml

PlantUML version 1.2022.6(Tue Jun 21 19:34:49 CEST 2022)
(GPL source distribution)
Java Runtime: OpenJDK Runtime Environment
JVM: OpenJDK 64-Bit Server VM
Default Encoding: UTF-8
Language: en
Country: US
--></g></svg>