<?xml version="1.0" encoding="UTF-8" standalone="no"?><svg xmlns="http://www.w3.org/2000/svg" xmlns:xlink="http://www.w3.org/1999/xlink" contentStyleType="text/css" height="314px" preserveAspectRatio="none" style="width:462px;height:314px;background:#FFFFFF;" version="1.1" viewBox="0 0 462 314" width="462px" zoomAndPan="magnify"><defs/><g><g id="cluster_##1131"><rect height="108" rx="2.5" ry="2.5" style="stroke:#181818;stroke-width:1.0;fill:none;" width="274" x="182.5" y="104"/></g><!--MD5=[8b37c555d4e18eaf34bdb9821e2ad4fc]
entity orchestrator--><g id="elem_orchestrator"><ellipse cx="246.5" cy="128.5" fill="#F1F1F1" rx="8" ry="8" style="stroke:#181818;stroke-width:0.5;"/><path d="M246.5,136.5 L246.5,163.5 M233.5,144.5 L259.5,144.5 M246.5,163.5 L233.5,178.5 M246.5,163.5 L259.5,178.5 " fill="none" style="stroke:#181818;stroke-width:0.5;"/><text fill="#000000" font-family="sans-serif" font-size="14" lengthAdjust="spacing" textLength="97" x="198" y="192.9951">Orchestration</text></g><!--MD5=[c51e95ea77c0468a055f12006ab1c960]
entity orchestratorDb--><g id="elem_orchestratorDb"><path d="M330.5,137 C330.5,127 385.5,127 385.5,127 C385.5,127 440.5,127 440.5,137 L440.5,178.5938 C440.5,188.5938 385.5,188.5938 385.5,188.5938 C385.5,188.5938 330.5,188.5938 330.5,178.5938 L330.5,137 " fill="#F1F1F1" style="stroke:#181818;stroke-width:0.5;"/><path d="M330.5,137 C330.5,147 385.5,147 385.5,147 C385.5,147 440.5,147 440.5,137 " fill="none" style="stroke:#181818;stroke-width:0.5;"/><text fill="#000000" font-family="sans-serif" font-size="14" lengthAdjust="spacing" textLength="90" x="340.5" y="163.9951">Orchestrator</text><text fill="#000000" font-family="sans-serif" font-size="14" lengthAdjust="spacing" textLength="21" x="340.5" y="180.292">DB</text></g><!--MD5=[7dbc5279649e49b795d9e72d9f808102]
entity userAction--><g id="elem_userAction"><rect fill="#F1F1F1" height="52.5938" rx="2.5" ry="2.5" style="stroke:#181818;stroke-width:0.5;" width="118" x="187.5" y="7"/><text fill="#000000" font-family="sans-serif" font-size="14" lengthAdjust="spacing" textLength="32" x="197.5" y="29.9951">User</text><text fill="#000000" font-family="sans-serif" font-size="14" lengthAdjust="spacing" textLength="98" x="197.5" y="46.292">created order</text></g><!--MD5=[a0aa8d3cc17c7038eec1e793abffb023]
entity step1--><g id="elem_step1"><rect fill="#F1F1F1" height="52.5938" rx="2.5" ry="2.5" style="stroke:#181818;stroke-width:0.5;" width="141" x="7" y="256"/><text fill="#000000" font-family="sans-serif" font-size="14" lengthAdjust="spacing" textLength="45" x="17" y="278.9951">Step 1</text><text fill="#000000" font-family="sans-serif" font-size="14" lengthAdjust="spacing" textLength="121" x="17" y="295.292">charge customer</text></g><!--MD5=[95f5ba265e8f0f45a639e66959962dae]
entity step2--><g id="elem_step2"><rect fill="#F1F1F1" height="52.5938" rx="2.5" ry="2.5" style="stroke:#181818;stroke-width:0.5;" width="127" x="183" y="256"/><text fill="#000000" font-family="sans-serif" font-size="14" lengthAdjust="spacing" textLength="45" x="193" y="278.9951">Step 2</text><text fill="#000000" font-family="sans-serif" font-size="14" lengthAdjust="spacing" textLength="107" x="193" y="295.292">schedule order</text></g><!--MD5=[0ef140ce3fd4c07702e8f80d12bdb9e3]
entity step3--><g id="elem_step3"><rect fill="#F1F1F1" height="52.5938" rx="2.5" ry="2.5" style="stroke:#181818;stroke-width:0.5;" width="98" x="345.5" y="256"/><text fill="#000000" font-family="sans-serif" font-size="14" lengthAdjust="spacing" textLength="45" x="355.5" y="278.9951">Step 3</text><text fill="#000000" font-family="sans-serif" font-size="14" lengthAdjust="spacing" textLength="78" x="355.5" y="295.292">send email</text></g><!--MD5=[271fb582872ec5a1be8f76f1baa17f33]
reverse link userAction to orchestrator--><g id="link_userAction_orchestrator"><path d="M235.28,65.18 C233.47,81.72 233.27,102.27 234.66,119.73 " fill="none" id="userAction-backto-orchestrator" style="stroke:#181818;stroke-width:1.0;"/><polygon fill="#181818" points="235.89,60.18,230.8136,68.6198,235.2751,65.142,238.7528,69.6036,235.89,60.18" style="stroke:#181818;stroke-width:1.0;"/></g><!--MD5=[9e5d30225e653742882cc975a8d23ff8]
link userAction to orchestrator--><g id="link_userAction_orchestrator"><path d="M257.73,60.18 C260.02,75.96 260.58,96.55 259.41,114.69 " fill="none" id="userAction-to-orchestrator" style="stroke:#181818;stroke-width:1.0;"/><polygon fill="#181818" points="259.03,119.73,263.6876,111.052,259.4015,114.7438,255.7097,110.4577,259.03,119.73" style="stroke:#181818;stroke-width:1.0;"/></g><!--MD5=[1f40f32e5fa53bd6dff039334f20dd80]
link orchestrator to orchestratorDb--><g id="link_orchestrator_orchestratorDb"><path d="M295.1,183.92 C305.21,186.42 315.33,187.1 325.44,185.97 " fill="none" id="orchestrator-to-orchestratorDb" style="stroke:#181818;stroke-width:1.0;"/><polygon fill="#181818" points="330.41,185.27,320.938,182.5715,325.4594,185.9711,322.0598,190.4925,330.41,185.27" style="stroke:#181818;stroke-width:1.0;"/></g><!--MD5=[a3128c0654ab388b2c8265f753235e06]
reverse link orchestrator to orchestratorDb--><g id="link_orchestrator_orchestratorDb"><path d="M300.06,131 C310.18,129.1 320.29,129 330.41,130.73 " fill="none" id="orchestrator-backto-orchestratorDb" style="stroke:#181818;stroke-width:1.0;"/><polygon fill="#181818" points="295.1,132.08,304.7424,134.0862,299.9869,131.0226,303.0505,126.2671,295.1,132.08" style="stroke:#181818;stroke-width:1.0;"/></g><!--MD5=[198e070060192610ec63780bae820766]
link orchestrator to step1--><g id="link_orchestrator_step1"><path d="M197.73,186.49 C167.99,206.24 131.29,232.81 106.07,252.83 " fill="none" id="orchestrator-to-step1" style="stroke:#181818;stroke-width:1.0;"/><polygon fill="#181818" points="102.12,255.98,111.6533,253.5067,106.0327,252.867,106.6724,247.2464,102.12,255.98" style="stroke:#181818;stroke-width:1.0;"/></g><!--MD5=[f8883d8829303dac5011573db300b8c3]
reverse link orchestrator to step1--><g id="link_orchestrator_step1"><path d="M203.68,199.3 C179.26,217.97 148.9,239.6 123.9,255.99 " fill="none" id="orchestrator-backto-step1" style="stroke:#181818;stroke-width:1.0;"/><polygon fill="#181818" points="207.86,196.09,198.2924,198.4269,203.9033,199.1468,203.1833,204.7577,207.86,196.09" style="stroke:#181818;stroke-width:1.0;"/></g><!--MD5=[f7e17ff6a252a2b719c693f64ca7fde0]
link orchestrator to step2--><g id="link_orchestrator_step2"><path d="M234.68,196.09 C233.27,213.57 233.47,234.19 235.28,250.78 " fill="none" id="orchestrator-to-step2" style="stroke:#181818;stroke-width:1.0;"/><polygon fill="#181818" points="235.89,255.8,238.7528,246.3764,235.2751,250.838,230.8136,247.3602,235.89,255.8" style="stroke:#181818;stroke-width:1.0;"/></g><!--MD5=[974911026f9eeddb0b4a4bdb8fb03342]
reverse link orchestrator to step2--><g id="link_orchestrator_step2"><path d="M259.4,201.14 C260.58,219.31 260.02,239.97 257.73,255.8 " fill="none" id="orchestrator-backto-step2" style="stroke:#181818;stroke-width:1.0;"/><polygon fill="#181818" points="259.02,196.09,255.6997,205.3623,259.3915,201.0762,263.6776,204.768,259.02,196.09" style="stroke:#181818;stroke-width:1.0;"/></g><!--MD5=[d50edbb3488c440d93026c613bed7411]
link orchestrator to step3--><g id="link_orchestrator_step3"><path d="M269.44,196.04 C277.92,204.09 287.43,212.45 296.5,220 C310.4,231.56 326.13,243.71 341.1,254.13 " fill="none" id="orchestrator-to-step3" style="stroke:#181818;stroke-width:1.0;"/><polygon fill="#181818" points="345.3,257.02,340.1362,248.6334,341.1752,254.194,335.6146,255.2331,345.3,257.02" style="stroke:#181818;stroke-width:1.0;"/></g><!--MD5=[8414fe872e5b3d2fc59b501d5c516b6c]
reverse link orchestrator to step3--><g id="link_orchestrator_step3"><path d="M298.98,192.12 C309.8,201.33 320.95,211.22 331.5,220 C346.16,232.2 362.87,245.05 375.93,255.83 " fill="none" id="orchestrator-backto-step3" style="stroke:#181818;stroke-width:1.0;"/><polygon fill="#181818" points="295.01,188.76,299.2759,197.6371,298.8193,191.9987,304.4577,191.5421,295.01,188.76" style="stroke:#181818;stroke-width:1.0;"/></g><!--MD5=[5396b4bc239c4ea7830f03bf2aa1ba6b]
@startuml

rectangle "User\ncreated order" as userAction
rectangle {
  actor Orchestration as orchestrator
  database "Orchestrator\nDB" as orchestratorDb
}
rectangle "Step 1\ncharge customer" as step1
rectangle "Step 2\nschedule order" as step2
rectangle "Step 3\nsend email"  as step3

orchestrator -up-> userAction
orchestrator <-up- userAction
orchestrator -right-> orchestratorDb
orchestrator <-right- orchestratorDb

orchestrator -down-> step1
orchestrator <-down- step1

orchestrator -down-> step2
orchestrator <-down- step2

orchestrator -down-> step3
orchestrator <-down- step3

@enduml

PlantUML version 1.2022.5(Sat Apr 30 12:55:52 CEST 2022)
(GPL source distribution)
Java Runtime: OpenJDK Runtime Environment
JVM: OpenJDK 64-Bit Server VM
Default Encoding: UTF-8
Language: en
Country: US
--></g></svg>