<?xml version="1.0" encoding="UTF-8" standalone="no"?><svg xmlns="http://www.w3.org/2000/svg" xmlns:xlink="http://www.w3.org/1999/xlink" contentStyleType="text/css" height="734px" preserveAspectRatio="none" style="width:1564px;height:734px;background:#FFFFFF;" version="1.1" viewBox="0 0 1564 734" width="1564px" zoomAndPan="magnify"><defs/><g><!--MD5=[d5ac3844f66b12d9e08170e47495e096]
cluster app--><g id="cluster_app"><rect fill="#00FFFF" height="184" rx="2.5" ry="2.5" style="stroke:#181818;stroke-width:1.0;" width="354" x="1204" y="69"/><path d="M1352,69 L1352,78.3151 L1342,88.3151 L1204,88.3151 " fill="none" style="stroke:#181818;stroke-width:1.0;"/><text fill="#000000" font-family="sans-serif" font-size="14" font-weight="bold" lengthAdjust="spacing" textLength="138" x="1207" y="83.0096">App (Entry Point)</text></g><!--MD5=[b7d39122360d9311b4be143c8495ea21]
cluster controllerLayer--><g id="cluster_controllerLayer"><rect fill="#9ACD32" height="254" rx="2.5" ry="2.5" style="stroke:#181818;stroke-width:1.0;" width="494" x="7" y="7"/><path d="M143,7 L143,16.3151 L133,26.3151 L7,26.3151 " fill="none" style="stroke:#181818;stroke-width:1.0;"/><text fill="#000000" font-family="sans-serif" font-size="14" font-weight="bold" lengthAdjust="spacing" textLength="126" x="10" y="21.0096">Controller layer</text></g><!--MD5=[bda1a16375a29484a87084063898b60a]
cluster internet--><g id="cluster_internet"><path d="M301.2835,66.2671 C305.7091,60.5487 311.4598,60.3867 314.8264,67.3941 C318.3699,61.7011 322.8077,61.7189 326.8136,66.8837 C330.6822,60.751 335.4884,61.8307 339.1551,67.1022 C342.8056,61.2671 347.6379,60.5369 351.8111,66.5435 C355.3199,59.3949 359.7123,59.6641 365.0077,64.5909 C368.2084,59.8208 373.6926,59.8016 376.9055,64.5756 C381.4222,59.7157 385.414,58.4827 389.4712,65.0796 C393.8604,58.5845 398.3872,58.9017 402.8265,65.0265 C406.7514,59.2645 411.8798,59.777 415.0059,65.8486 C419.2415,58.6435 425.7006,59.892 429.2527,66.551 C433.3051,60.1275 437.9655,61.7314 441.7172,66.8751 C445.319,61.8892 451.606,61.2659 454.3523,67.8123 C461.7865,69.8101 462.891,75.3403 456.9884,80.1806 C463.0557,83.1159 464.3615,86.5281 459.5308,91.8398 C465.8308,94.8455 467.5669,100.4061 461.0727,104.92 C467.2791,109.9966 466.3846,114.981 460.2211,119.3264 C465.6897,124.6031 463.4706,130.4553 456.4948,132.1024 C462.0177,136.8181 459.925,141.5 454.2047,144.063 C450.871,150.2526 444.8083,151.2605 440.6303,144.9823 C437.2021,150.6449 431.2529,149.7771 428.1768,144.5785 C424.0028,150.0668 419.3115,151.445 415.1551,144.56 C411.6413,149.238 407.3882,150.0561 403.9795,144.4459 C401.5589,152.0075 395.1167,152.3455 390.8827,146.1754 C386.5452,151.9627 381.9561,151.0484 378.0016,145.7313 C373.1951,152.0847 369.059,151.2414 364.5593,145.3933 C361.5311,151.4518 356.4821,151.4397 353.0653,145.7744 C348.723,152.1091 342.9757,150.3697 339.6872,144.6089 C336.3063,150.4179 330.1881,151.3713 327.0542,144.3655 C323.2716,151.753 317.5638,150.7698 313.4074,144.7458 C309.8755,149.8039 304.4011,149.9124 301.8284,143.7554 C295.4647,140.1403 295.2605,135.1918 300.4738,130.4022 C295.4537,126.9555 295.3789,123.3084 299.9037,119.3685 C293.2371,114.4708 292.9739,109.9881 300.5558,105.7739 C293.958,102.169 292.3309,97.0112 299.3723,92.2158 C294.0399,87.0268 294.2553,82.7571 300.8748,78.9187 C294.9957,74.8949 294.2166,69.8726 301.2835,66.2671 " fill="#FFFFFF" style="stroke:#181818;stroke-width:1.0;"/><text fill="#000000" font-family="sans-serif" font-size="14" font-weight="bold" lengthAdjust="spacing" textLength="66" x="343.5" y="84.0096">Internet</text><text fill="#000000" font-family="sans-serif" font-size="14" font-weight="bold" lengthAdjust="spacing" textLength="153" x="300" y="100.3247">(RestAPI, GraphQL)</text></g><!--MD5=[7da5605bbc58a221e14b4197dc0ccac6]
cluster businessLayer--><g id="cluster_businessLayer"><rect fill="none" height="320" rx="2.5" ry="2.5" style="stroke:#181818;stroke-width:1.0;" width="383" x="533" y="69"/><path d="M662,69 L662,78.3151 L652,88.3151 L533,88.3151 " fill="none" style="stroke:#181818;stroke-width:1.0;"/><text fill="#000000" font-family="sans-serif" font-size="14" font-weight="bold" lengthAdjust="spacing" textLength="119" x="536" y="83.0096">Business Layer</text></g><!--MD5=[00d52d48042c74357a61e7009fa152b2]
cluster dal--><g id="cluster_dal"><rect fill="#87CEEB" height="191" rx="2.5" ry="2.5" style="stroke:#181818;stroke-width:1.0;" width="681" x="612" y="446"/><path d="M766,446 L766,455.3151 L756,465.3151 L612,465.3151 " fill="none" style="stroke:#181818;stroke-width:1.0;"/><text fill="#000000" font-family="sans-serif" font-size="14" font-weight="bold" lengthAdjust="spacing" textLength="144" x="615" y="460.0096">Data Access Layer</text></g><!--MD5=[e8f3788ad7b97e8de68b4194558bc2a1]
cluster db--><g id="cluster_db"><path d="M1139,507 C1139,497 1200,497 1200,497 C1200,497 1261,497 1261,507 L1261,595 C1261,605 1200,605 1200,605 C1200,605 1139,605 1139,595 L1139,507 " fill="#FFFFFF" style="stroke:#181818;stroke-width:1.0;"/><path d="M1139,507 C1139,517 1200,517 1200,517 C1200,517 1261,517 1261,507 " fill="none" style="stroke:#181818;stroke-width:1.0;"/><text fill="#000000" font-family="sans-serif" font-size="14" font-weight="bold" lengthAdjust="spacing" textLength="23" x="1188.5" y="532.0096">DB</text><text fill="#000000" font-family="sans-serif" font-size="14" font-weight="bold" lengthAdjust="spacing" textLength="106" x="1147" y="548.3247">(SQL, NoSQL)</text></g><!--MD5=[d12fcc0cf8a04608080fd94690e9e760]
cluster thirdPartiService--><g id="cluster_thirdPartiService"><path d="M955.2835,520.2671 C959.7091,514.5487 965.4598,514.3867 968.8264,521.3941 C972.3699,515.7011 976.8077,515.7189 980.8136,520.8837 C984.6822,514.751 989.4884,515.8307 993.1551,521.1022 C996.8056,515.2671 1001.6379,514.5369 1005.8111,520.5435 C1009.3199,513.3949 1013.7123,513.6641 1019.0077,518.5909 C1022.2084,513.8208 1027.6926,513.8016 1030.9055,518.5756 C1035.4222,513.7157 1039.414,512.4827 1043.4712,519.0796 C1047.8604,512.5845 1052.3872,512.9017 1056.8265,519.0265 C1060.7514,513.2645 1065.8798,513.777 1069.0059,519.8486 C1073.2415,512.6435 1079.7006,513.892 1083.2527,520.551 C1087.3051,514.1275 1091.9655,515.7314 1095.7172,520.8751 C1099.319,515.8892 1105.606,515.2659 1108.3523,521.8123 C1115.7865,523.8101 1116.891,529.3403 1110.9884,534.1806 C1117.0557,537.1159 1118.3615,540.5281 1113.5308,545.8398 C1119.8308,548.8455 1121.5669,554.4061 1115.0727,558.92 C1121.2791,563.9966 1120.3846,568.981 1114.2211,573.3264 C1119.6897,578.6031 1117.4706,584.4553 1110.4948,586.1024 C1116.0177,590.8181 1113.925,595.5 1108.2047,598.063 C1104.871,604.2526 1098.8083,605.2605 1094.6303,598.9823 C1091.2021,604.6449 1085.2529,603.7771 1082.1768,598.5785 C1078.0028,604.0668 1073.3115,605.445 1069.1551,598.56 C1065.6413,603.238 1061.3882,604.0561 1057.9795,598.4459 C1055.5589,606.0075 1049.1167,606.3455 1044.8827,600.1754 C1040.5452,605.9627 1035.9561,605.0484 1032.0016,599.7313 C1027.1951,606.0847 1023.059,605.2414 1018.5593,599.3933 C1015.5311,605.4518 1010.4821,605.4397 1007.0653,599.7744 C1002.723,606.1091 996.9757,604.3697 993.6872,598.6089 C990.3063,604.4179 984.1881,605.3713 981.0542,598.3655 C977.2716,605.753 971.5638,604.7698 967.4074,598.7458 C963.8755,603.8039 958.4011,603.9124 955.8284,597.7554 C949.4647,594.1403 949.2605,589.1918 954.4738,584.4022 C949.4537,580.9555 949.3789,577.3084 953.9037,573.3685 C947.2371,568.4708 946.9739,563.9881 954.5558,559.7739 C947.958,556.169 946.3309,551.0112 953.3723,546.2158 C948.0399,541.0268 948.2553,536.7571 954.8748,532.9187 C948.9957,528.8949 948.2166,523.8726 955.2835,520.2671 " fill="#FFFFFF" style="stroke:#181818;stroke-width:1.0;"/><text fill="#000000" font-family="sans-serif" font-size="14" font-weight="bold" lengthAdjust="spacing" textLength="151" x="955" y="538.0096">Third party service</text><text fill="#000000" font-family="sans-serif" font-size="14" font-weight="bold" lengthAdjust="spacing" textLength="153" x="954" y="554.3247">(RestAPI, GraphQL)</text></g><!--MD5=[823eae247e5b9b25193451248ff40473]
cluster localStorage--><g id="cluster_localStorage"><path d="M792,514.5 L792,602.5 A2.5,2.5 0 0 0 794.5,605 L919.5,605 A2.5,2.5 0 0 0 922,602.5 L922,522 L912,512 L794.5,512 A2.5,2.5 0 0 0 792,514.5 " fill="#FFFFFF" style="stroke:#181818;stroke-width:1.0;"/><path d="M912,512 L912,519.5 A2.5,2.5 0 0 0 914.5,522 L922,522 " fill="#FFFFFF" style="stroke:#181818;stroke-width:1.0;"/><text fill="#000000" font-family="sans-serif" font-size="14" font-weight="bold" lengthAdjust="spacing" textLength="109" x="802.5" y="527.0096">Local Storage</text><text fill="#000000" font-family="sans-serif" font-size="14" font-weight="bold" lengthAdjust="spacing" textLength="114" x="800" y="543.3247">(file, memory)</text></g><!--MD5=[512b8c697a1fca29e5d65020b865f217]
cluster ftp--><g id="cluster_ftp"><path d="M652,530.5 L652,602.5 A2.5,2.5 0 0 0 654.5,605 L765.5,605 A2.5,2.5 0 0 0 768,602.5 L768,538 L758,528 L654.5,528 A2.5,2.5 0 0 0 652,530.5 " fill="#FFFFFF" style="stroke:#181818;stroke-width:1.0;"/><path d="M758,528 L758,535.5 A2.5,2.5 0 0 0 760.5,538 L768,538 " fill="#FFFFFF" style="stroke:#181818;stroke-width:1.0;"/><text fill="#000000" font-family="sans-serif" font-size="14" font-weight="bold" lengthAdjust="spacing" textLength="30" x="695" y="543.0096">FTP</text></g><!--MD5=[3e81cc6ee7da4fa8b6adc12b329096f6]
cluster util--><g id="cluster_util"><rect fill="#FFFF00" height="308" rx="2.5" ry="2.5" style="stroke:#181818;stroke-width:1.0;" width="215" x="1325" y="302"/><path d="M1363,302 L1363,311.3151 L1353,321.3151 L1325,321.3151 " fill="none" style="stroke:#181818;stroke-width:1.0;"/><text fill="#000000" font-family="sans-serif" font-size="14" font-weight="bold" lengthAdjust="spacing" textLength="28" x="1328" y="316.0096">Util</text></g><!--MD5=[5d27561944bc7c957b66f3c8fd3a1b8f]
entity DB Init--><g id="elem_DB Init"><rect fill="#FFFFFF" height="36.3151" rx="2.5" ry="2.5" style="stroke:#181818;stroke-width:0.5;" width="68" x="1220" y="104"/><text fill="#000000" font-family="sans-serif" font-size="14" lengthAdjust="spacing" textLength="48" x="1230" y="127.0096">DB Init</text></g><!--MD5=[3256d1f22611cbef19edc581c74e9b70]
entity RestApi Init--><g id="elem_RestApi Init"><rect fill="#FFFFFF" height="36.3151" rx="2.5" ry="2.5" style="stroke:#181818;stroke-width:0.5;" width="102" x="1323" y="104"/><text fill="#000000" font-family="sans-serif" font-size="14" lengthAdjust="spacing" textLength="82" x="1333" y="127.0096">RestApi Init</text></g><!--MD5=[5995a472730316ad1ba99ef5d1183cbd]
entity Cron Init--><g id="elem_Cron Init"><rect fill="#FFFFFF" height="36.3151" rx="2.5" ry="2.5" style="stroke:#181818;stroke-width:0.5;" width="81" x="1460.5" y="104"/><text fill="#000000" font-family="sans-serif" font-size="14" lengthAdjust="spacing" textLength="61" x="1470.5" y="127.0096">Cron Init</text></g><!--MD5=[618e6995c5a9d1ef3bda17f061f36fd1]
entity MQ Init--><g id="elem_MQ Init"><rect fill="#FFFFFF" height="36.3151" rx="2.5" ry="2.5" style="stroke:#181818;stroke-width:0.5;" width="70" x="1254" y="201"/><text fill="#000000" font-family="sans-serif" font-size="14" lengthAdjust="spacing" textLength="50" x="1264" y="224.0096">MQ Init</text></g><!--MD5=[d6d2a9314db6e00945b1f326a85474e5]
entity EventBus Init--><g id="elem_EventBus Init"><rect fill="#FFFFFF" height="36.3151" rx="2.5" ry="2.5" style="stroke:#181818;stroke-width:0.5;" width="114" x="1359" y="201"/><text fill="#000000" font-family="sans-serif" font-size="14" lengthAdjust="spacing" textLength="94" x="1369" y="224.0096">EventBus Init</text></g><!--MD5=[3401ea4b568088ee2885729e55a4da0f]
entity messageQueue--><g id="elem_messageQueue"><path d="M36.5,109 L159.5,109 C164.5,109 164.5,122.1575 164.5,122.1575 C164.5,122.1575 164.5,135.3151 159.5,135.3151 L36.5,135.3151 C31.5,135.3151 31.5,122.1575 31.5,122.1575 C31.5,122.1575 31.5,109 36.5,109 " fill="#FFFFFF" style="stroke:#181818;stroke-width:0.5;"/><path d="M159.5,109 C154.5,109 154.5,122.1575 154.5,122.1575 C154.5,135.3151 159.5,135.3151 159.5,135.3151 " fill="none" style="stroke:#181818;stroke-width:0.5;"/><text fill="#000000" font-family="sans-serif" font-size="14" lengthAdjust="spacing" textLength="113" x="36.5" y="127.0096">Message Queue</text></g><!--MD5=[0c85c28880b6f2be52738c2f51c3742e]
entity croneJob--><g id="elem_croneJob"><rect fill="#FFFFFF" height="36.3151" rx="35" ry="35" style="stroke:#181818;stroke-width:0.5;" width="76" x="200" y="104"/><text fill="#000000" font-family="sans-serif" font-size="14" lengthAdjust="spacing" textLength="56" x="210" y="127.0096">CronJob</text></g><!--MD5=[e3e91991f24f92e737d9e6cb749965e2]
entity eventBus--><g id="elem_eventBus"><rect fill="#FFFFFF" height="36.3151" rx="35" ry="35" style="stroke:#181818;stroke-width:0.5;" width="87" x="54.5" y="201"/><text fill="#000000" font-family="sans-serif" font-size="14" lengthAdjust="spacing" textLength="67" x="64.5" y="224.0096">EventBus</text></g><!--MD5=[fbfa8cf2b25564c931a4bf2e88c4635d]
entity cloudTO--><g id="elem_cloudTO"><polygon fill="#FF00FF" points="398,122,388,109,368,109,358,122,368,135,388,135,398,122" style="stroke:#181818;stroke-width:0.5;"/><text fill="#000000" font-family="sans-serif" font-size="14" lengthAdjust="spacing" textLength="20" x="368" y="127.0096">TO</text></g><!--MD5=[bf3cc50e1edb39cc0164f3463f634505]
entity useCaseLayer--><g id="elem_useCaseLayer"><rect fill="#FFFF00" height="36.3151" rx="2.5" ry="2.5" style="stroke:#181818;stroke-width:0.5;" width="129" x="591.5" y="104"/><text fill="#000000" font-family="sans-serif" font-size="14" lengthAdjust="spacing" textLength="109" x="601.5" y="127.0096">Use Case Layer</text></g><!--MD5=[2a4a320068087b239141c82901ffd9d7]
entity serviceLayer--><g id="elem_serviceLayer"><rect fill="#FFA500" height="36.3151" rx="2.5" ry="2.5" style="stroke:#181818;stroke-width:0.5;" width="117" x="639.5" y="201"/><text fill="#000000" font-family="sans-serif" font-size="14" lengthAdjust="spacing" textLength="97" x="649.5" y="224.0096">Service Layer</text></g><!--MD5=[b2501658a632e2f1205e4b716dea231e]
entity modelLayer--><g id="elem_modelLayer"><polygon fill="#FF00FF" points="900,355,856.5,342,769.5,342,726,355,769.5,368,856.5,368,900,355" style="stroke:#181818;stroke-width:0.5;"/><text fill="#000000" font-family="sans-serif" font-size="14" lengthAdjust="spacing" textLength="87" x="769.5" y="360.0096">Model Layer</text></g><!--MD5=[152d0b76fe3286f13ea83bd76eb538fc]
entity repoLayer--><g id="elem_repoLayer"><rect fill="#87CEEB" height="36.3151" rx="2.5" ry="2.5" style="stroke:#181818;stroke-width:0.5;" width="141" x="549.5" y="337"/><text fill="#000000" font-family="sans-serif" font-size="14" lengthAdjust="spacing" textLength="121" x="559.5" y="360.0096">Repository Layer</text></g><!--MD5=[00d0ea988e967290b82c73968a5c6684]
entity dbEntity--><g id="elem_dbEntity"><polygon fill="#FF00FF" points="1242,576,1221,563,1179,563,1158,576,1179,589,1221,589,1242,576" style="stroke:#181818;stroke-width:0.5;"/><text fill="#000000" font-family="sans-serif" font-size="14" lengthAdjust="spacing" textLength="42" x="1179" y="581.0096">Entity</text></g><!--MD5=[0c170465c024e70ccca6192b7741bae3]
entity cloudEntity--><g id="elem_cloudEntity"><polygon fill="#FF00FF" points="1072,576,1051,563,1009,563,988,576,1009,589,1051,589,1072,576" style="stroke:#181818;stroke-width:0.5;"/><text fill="#000000" font-family="sans-serif" font-size="14" lengthAdjust="spacing" textLength="42" x="1009" y="581.0096">Entity</text></g><!--MD5=[21b77d99c8e42b836976049a9ae6a9b3]
entity lsEntity--><g id="elem_lsEntity"><polygon fill="#FF00FF" points="899,576,878,563,836,563,815,576,836,589,878,589,899,576" style="stroke:#181818;stroke-width:0.5;"/><text fill="#000000" font-family="sans-serif" font-size="14" lengthAdjust="spacing" textLength="42" x="836" y="581.0096">Entity</text></g><!--MD5=[e061b6377ab4a20036f0d716bb5737dd]
entity ftpEntity--><g id="elem_ftpEntity"><polygon fill="#FF00FF" points="752,576,731,563,689,563,668,576,689,589,731,589,752,576" style="stroke:#181818;stroke-width:0.5;"/><text fill="#000000" font-family="sans-serif" font-size="14" lengthAdjust="spacing" textLength="42" x="689" y="581.0096">Entity</text></g><!--MD5=[d7a01c17c4163d10b2c6131af23a7c66]
entity logger--><g id="elem_logger"><rect fill="#FFFFFF" height="36.3151" rx="2.5" ry="2.5" style="stroke:#181818;stroke-width:0.5;" width="66" x="1341" y="337"/><text fill="#000000" font-family="sans-serif" font-size="14" lengthAdjust="spacing" textLength="46" x="1351" y="360.0096">logger</text></g><!--MD5=[3220cc13404f501a106b23405b154cb5]
entity error--><g id="elem_error"><rect fill="#FFFFFF" height="36.3151" rx="2.5" ry="2.5" style="stroke:#181818;stroke-width:0.5;" width="56" x="1442" y="337"/><text fill="#000000" font-family="sans-serif" font-size="14" lengthAdjust="spacing" textLength="36" x="1452" y="360.0096">error</text></g><!--MD5=[caf660ac2a54b55a5c31b5515889e628]
entity config--><g id="elem_config"><rect fill="#FFFFFF" height="36.3151" rx="2.5" ry="2.5" style="stroke:#181818;stroke-width:0.5;" width="64" x="1341" y="558"/><text fill="#000000" font-family="sans-serif" font-size="14" lengthAdjust="spacing" textLength="44" x="1351" y="581.0096">config</text></g><!--MD5=[b73a149e02d616b0b73127b4fd0e5544]
entity constant--><g id="elem_constant"><rect fill="#FFFFFF" height="36.3151" rx="2.5" ry="2.5" style="stroke:#181818;stroke-width:0.5;" width="83" x="1440.5" y="558"/><text fill="#000000" font-family="sans-serif" font-size="14" lengthAdjust="spacing" textLength="63" x="1450.5" y="581.0096">constant</text></g><!--MD5=[a3850e909c9e65e78bb833c648834729]
entity commonDal--><g id="elem_commonDal"><rect fill="#FF00FF" height="36.3151" rx="2.5" ry="2.5" style="stroke:#181818;stroke-width:0.5;" width="118" x="501" y="692"/><text fill="#000000" font-family="sans-serif" font-size="14" lengthAdjust="spacing" textLength="98" x="511" y="715.0096">Common DAL</text></g><!--MD5=[aaaedbe1c0e11052f61f72549af461d8]
entity commonRepo--><g id="elem_commonRepo"><rect fill="#FF00FF" height="36.3151" rx="2.5" ry="2.5" style="stroke:#181818;stroke-width:0.5;" width="166" x="419" y="558"/><text fill="#000000" font-family="sans-serif" font-size="14" lengthAdjust="spacing" textLength="146" x="429" y="581.0096">Common Repository</text></g><!--MD5=[44f4c5bd590d77eb78de5047d9dabc90]
link controllerLayer to repoLayer--><g id="link_controllerLayer_repoLayer"><path d="M501.2401,137.9881 C501.3436,138.1763 501.4479,138.366 501.5531,138.5572 C501.7634,138.9396 501.977,139.3282 502.1939,139.7227 C503.9292,142.8787 505.8747,146.417 507.9992,150.2809 C516.4972,165.7369 527.8594,186.4037 540.0938,208.6575 C564.5625,253.165 592.52,304.02 608.03,332.23 " fill="none" id="controllerLayer-to-repoLayer" style="stroke:#181818;stroke-width:1.0;"/><polygon fill="#181818" points="610.53,336.77,609.705,326.9558,608.1237,332.3871,602.6924,330.8058,610.53,336.77" style="stroke:#181818;stroke-width:1.0;"/></g><!--MD5=[f3f4a7b60bab503662fe6634701992a0]
link controllerLayer to serviceLayer--><g id="link_controllerLayer_serviceLayer"><path d="M501.1023,132.0721 C501.1499,132.1225 501.1977,132.1731 501.2457,132.2238 C501.3416,132.3252 501.4382,132.4271 501.5355,132.5296 C501.7302,132.7345 501.9275,132.9416 502.1275,133.1506 C502.5276,133.5688 502.9383,133.995 503.3592,134.4283 C504.201,135.2948 505.0834,136.1897 506.0025,137.105 C513.355,144.4275 523.05,153.06 533,159 C564.37,177.72 602.61,191.86 634.38,201.6 " fill="none" id="controllerLayer-to-serviceLayer" style="stroke:#181818;stroke-width:1.0;"/><polygon fill="#181818" points="639.42,203.12,631.9577,196.6923,634.6328,201.6767,629.6485,204.3518,639.42,203.12" style="stroke:#181818;stroke-width:1.0;"/></g><!--MD5=[78e3babbb48dd82d9d91071474664b76]
link controllerLayer to useCaseLayer--><g id="link_controllerLayer_useCaseLayer"><path d="M501.2125,122 C501.3327,122 501.4529,122 501.5731,122 C501.8135,122 502.0539,122 502.2943,122 C503.2559,122 504.2176,122 505.1792,122 C509.0257,122 512.8724,122 516.7192,122 C524.4128,122 532.1069,122 539.8013,122 C555.19,122 570.58,122 585.97,122 " fill="none" id="controllerLayer-to-useCaseLayer" style="stroke:#181818;stroke-width:1.0;"/><polygon fill="#181818" points="591.31,122,582.31,118,586.31,122,582.31,126,591.31,122" style="stroke:#181818;stroke-width:1.0;"/></g><!--MD5=[df71ed0ae1fc14291b3383e5ce6a1ac5]
link dal to commonDal--><g id="link_dal_commonDal"><path d="M611.9363,627.5347 C611.9021,627.6647 611.8677,627.7948 611.8332,627.9249 C611.7641,628.1851 611.6944,628.4453 611.6242,628.7056 C609.3775,637.035 606.55,645.4075 603,653 C599.31,660.88 594.36,668.7 589.14,675.88 " fill="none" id="dal-to-commonDal" style="stroke:#181818;stroke-width:1.0;"/><polygon fill="none" points="594.48,680.42,576.51,691.66,583.54,671.67,594.48,680.42" style="stroke:#181818;stroke-width:1.0;"/></g><!--MD5=[c30ea54455b2d2c5c65405299eba6a49]
link repoLayer to commonRepo--><g id="link_repoLayer_commonRepo"><path d="M610.74,373.18 C591.4,409.09 546.37,492.65 520.74,540.23 " fill="none" id="repoLayer-to-commonRepo" style="stroke:#181818;stroke-width:1.0;"/><polygon fill="none" points="526.87,543.61,511.22,557.9,514.54,536.97,526.87,543.61" style="stroke:#181818;stroke-width:1.0;"/></g><!--MD5=[54f568256bb6665df22a91ab2c30a627]
link commonRepo to commonDal--><g id="link_commonRepo_commonDal"><path d="M509.58,594.26 C520.05,618.07 538.92,661.02 550.37,687.08 " fill="none" id="commonRepo-to-commonDal" style="stroke:#181818;stroke-width:1.0;"/><polygon fill="#181818" points="552.42,691.74,552.4628,681.8912,550.4092,687.1622,545.1382,685.1086,552.42,691.74" style="stroke:#181818;stroke-width:1.0;"/></g><!--MD5=[489f280bd1c10b3aa331e50de411854a]
link useCaseLayer to serviceLayer--><g id="link_useCaseLayer_serviceLayer"><path d="M663.7,140.42 C670.63,156.09 680.84,179.18 688.31,196.09 " fill="none" id="useCaseLayer-to-serviceLayer" style="stroke:#181818;stroke-width:1.0;"/><polygon fill="#181818" points="690.35,200.69,690.3815,190.8412,688.3339,196.1145,683.0606,194.0669,690.35,200.69" style="stroke:#181818;stroke-width:1.0;"/></g><!--MD5=[8acf75cfc57da0d68ba82ec6d06d1393]
link useCaseLayer to modelLayer--><g id="link_useCaseLayer_modelLayer"><path d="M696.15,140.12 C722.08,153.17 754.5,173.58 774,201 C803.91,243.06 810.92,306.01 812.54,336.38 " fill="none" id="useCaseLayer-to-modelLayer" style="stroke:#181818;stroke-width:1.0;"/><polygon fill="#181818" points="812.78,341.65,816.3648,332.4767,812.5517,336.6552,808.3732,332.8421,812.78,341.65" style="stroke:#181818;stroke-width:1.0;"/></g><!--MD5=[e79970e640a5ee7959f019ab6505c09b]
link useCaseLayer to repoLayer--><g id="link_useCaseLayer_repoLayer"><path d="M646.07,140.29 C637.83,155.67 626.73,179.05 622,201 C612.21,246.47 614.88,301.32 617.54,331.44 " fill="none" id="useCaseLayer-to-repoLayer" style="stroke:#181818;stroke-width:1.0;"/><polygon fill="#181818" points="618.03,336.77,621.1625,327.4326,617.558,331.7923,613.1982,328.1878,618.03,336.77" style="stroke:#181818;stroke-width:1.0;"/></g><!--MD5=[7f8275b9a215b8356b9fc1883147e870]
link serviceLayer to modelLayer--><g id="link_serviceLayer_modelLayer"><path d="M712.8,237.24 C735.26,263.41 777.62,312.78 799.37,338.11 " fill="none" id="serviceLayer-to-modelLayer" style="stroke:#181818;stroke-width:1.0;"/><polygon fill="#181818" points="802.67,341.97,799.8499,332.5335,799.416,338.1737,793.7759,337.7399,802.67,341.97" style="stroke:#181818;stroke-width:1.0;"/></g><!--MD5=[3e94745410e51aa14da3d9f4bc87ce80]
link serviceLayer to repoLayer--><g id="link_serviceLayer_repoLayer"><path d="M687.96,237.24 C673.8,261.57 647.98,305.93 632.57,332.41 " fill="none" id="serviceLayer-to-repoLayer" style="stroke:#181818;stroke-width:1.0;"/><polygon fill="#181818" points="630,336.82,637.9793,331.0467,632.5114,332.4965,631.0616,327.0285,630,336.82" style="stroke:#181818;stroke-width:1.0;"/></g><!--MD5=[59e0aab194eb2af02b2da7060539552f]
link repoLayer to modelLayer--><g id="link_repoLayer_modelLayer"><path d="M690.87,355 C700.75,355 710.64,355 720.52,355 " fill="none" id="repoLayer-to-modelLayer" style="stroke:#181818;stroke-width:1.0;"/><polygon fill="#181818" points="725.69,355,716.69,351,720.69,355,716.69,359,725.69,355" style="stroke:#181818;stroke-width:1.0;"/></g><!--MD5=[3c2c9f1f83b9f339ddfdbc634fdaeb0f]
link repoLayer to dal--><g id="link_repoLayer_dal"><path d="M620,373.18 C620,385.8875 620,404.5631 620,425.4998 C620,430.734 620,436.1095 620,441.5684 C620,442.9331 620,444.3031 620,445.6773 " fill="none" id="repoLayer-to-dal" style="stroke:#181818;stroke-width:1.0;"/><polygon fill="#181818" points="620,445.6773,624,436.6773,620,440.6773,616,436.6773,620,445.6773" style="stroke:#181818;stroke-width:1.0;"/><text fill="#000000" font-family="sans-serif" font-size="13" lengthAdjust="spacing" textLength="141" x="621" y="418.0669">Dependency injection</text></g><!--MD5=[a6eeddc790c2f7500551ef92fed2ab8c]
@startuml


frame "App (Entry Point)" as app #cyan {
  rectangle "DB Init" #white
  rectangle "RestApi Init" #white
  rectangle "Cron Init" #white
  rectangle "MQ Init" #white
  rectangle "EventBus Init" #white
}


frame "Controller layer" as controllerLayer #yellowgreen {
  cloud "Internet\n(RestAPI, GraphQL)" as internet #white {
    hexagon "TO" as cloudTO #fuchsia
  }
  queue "Message Queue" as messageQueue #white
  storage "CronJob" as croneJob #white
  storage "EventBus" as eventBus #white
}

rectangle "Common DAL" as commonDal #fuchsia
rectangle "Common Repository" as commonRepo #fuchsia

frame "Business Layer" as businessLayer {
  rectangle "Use Case Layer" as useCaseLayer #yellow
  rectangle "Service Layer" as serviceLayer #orange
  hexagon "Model Layer" as modelLayer #fuchsia
  rectangle "Repository Layer" as repoLayer  #skyblue
}

frame "Data Access Layer" as dal #skyblue {
  database "DB\n(SQL, NoSQL)" as db #white {
    hexagon "Entity" as dbEntity #fuchsia
  }
  cloud "Third party service\n(RestAPI, GraphQL)" as thirdPartiService #white {
    hexagon "Entity" as cloudEntity #fuchsia
  }
  file "Local Storage\n(file, memory)" as localStorage #white {
    hexagon "Entity" as lsEntity #fuchsia
  }
  file "FTP" as ftp #white {
    hexagon "Entity" as ftpEntity #fuchsia
  }
}


frame "Util" as util #yellow {
  rectangle "logger" #white
  rectangle "error" #white
  rectangle "config" #white
  rectangle "constant" #white
}

' rectangle "Module Layer" as moduleLayer

' ' ' ' ' ' '
' Relations '
' ' ' ' ' ' '

controllerLayer -right-> repoLayer
controllerLayer -right-> serviceLayer
controllerLayer -right-> useCaseLayer

dal -down-|> commonDal
repoLayer -down-|> commonRepo

commonRepo -down-> commonDal

useCaseLayer -down-> serviceLayer
useCaseLayer -right-> modelLayer
useCaseLayer -down-> repoLayer

serviceLayer -right-> modelLayer
serviceLayer -down-> repoLayer

repoLayer -right-> modelLayer
repoLayer -down-> dal : Dependency injection

@enduml

@startuml


frame "App (Entry Point)" as app #cyan {
  rectangle "DB Init" #white
  rectangle "RestApi Init" #white
  rectangle "Cron Init" #white
  rectangle "MQ Init" #white
  rectangle "EventBus Init" #white
}


frame "Controller layer" as controllerLayer #yellowgreen {
  cloud "Internet\n(RestAPI, GraphQL)" as internet #white {
    hexagon "TO" as cloudTO #fuchsia
  }
  queue "Message Queue" as messageQueue #white
  storage "CronJob" as croneJob #white
  storage "EventBus" as eventBus #white
}

rectangle "Common DAL" as commonDal #fuchsia
rectangle "Common Repository" as commonRepo #fuchsia

frame "Business Layer" as businessLayer {
  rectangle "Use Case Layer" as useCaseLayer #yellow
  rectangle "Service Layer" as serviceLayer #orange
  hexagon "Model Layer" as modelLayer #fuchsia
  rectangle "Repository Layer" as repoLayer  #skyblue
}

frame "Data Access Layer" as dal #skyblue {
  database "DB\n(SQL, NoSQL)" as db #white {
    hexagon "Entity" as dbEntity #fuchsia
  }
  cloud "Third party service\n(RestAPI, GraphQL)" as thirdPartiService #white {
    hexagon "Entity" as cloudEntity #fuchsia
  }
  file "Local Storage\n(file, memory)" as localStorage #white {
    hexagon "Entity" as lsEntity #fuchsia
  }
  file "FTP" as ftp #white {
    hexagon "Entity" as ftpEntity #fuchsia
  }
}


frame "Util" as util #yellow {
  rectangle "logger" #white
  rectangle "error" #white
  rectangle "config" #white
  rectangle "constant" #white
}



controllerLayer -right-> repoLayer
controllerLayer -right-> serviceLayer
controllerLayer -right-> useCaseLayer

dal -down-|> commonDal
repoLayer -down-|> commonRepo

commonRepo -down-> commonDal

useCaseLayer -down-> serviceLayer
useCaseLayer -right-> modelLayer
useCaseLayer -down-> repoLayer

serviceLayer -right-> modelLayer
serviceLayer -down-> repoLayer

repoLayer -right-> modelLayer
repoLayer -down-> dal : Dependency injection

@enduml

PlantUML version 1.2022.7(Mon Aug 22 19:01:30 CEST 2022)
(GPL source distribution)
Java Runtime: OpenJDK Runtime Environment
JVM: OpenJDK 64-Bit Server VM
Default Encoding: UTF-8
Language: en
Country: US
--></g></svg>